<?xml version="1.0" encoding="UTF-8"?>
<svg xmlns="http://www.w3.org/2000/svg" xmlns:xlink="http://www.w3.org/1999/xlink" width="130px" height="23px" viewBox="0 0 131 23" version="1.1">
<g id="surface1">
<path style=" stroke:none;fill-rule:nonzero;fill:rgb(100%,100%,100%);fill-opacity:1;" d="M 1.273438 4.714844 C 1.273438 2.109375 3.371094 0 5.964844 0 L 19.105469 0 C 21.699219 0 23.796875 2.109375 23.796875 4.714844 L 23.796875 17.917969 C 23.796875 20.519531 21.699219 22.632812 19.105469 22.632812 L 5.964844 22.632812 C 3.371094 22.632812 1.273438 20.519531 1.273438 17.917969 Z M 1.273438 4.714844 "/>
<path style=" stroke:none;fill-rule:nonzero;fill:rgb(100%,34.117648%,13.333334%);fill-opacity:1;" d="M 5.777344 0 C 3.289062 0 1.273438 2.027344 1.273438 4.527344 L 1.273438 6.222656 L 6.800781 6.222656 C 7.347656 6.222656 7.832031 6.574219 8.003906 7.09375 L 10.53125 14.710938 L 14.539062 14.710938 L 17.066406 7.09375 C 17.238281 6.574219 17.722656 6.222656 18.269531 6.222656 L 23.796875 6.222656 L 23.796875 4.527344 C 23.796875 2.027344 21.78125 0 19.292969 0 Z M 5.777344 0 "/>
<path style=" stroke:none;fill-rule:nonzero;fill:rgb(100%,34.117648%,13.333334%);fill-opacity:1;" d="M 23.796875 8.488281 L 18.980469 8.488281 L 16.453125 16.101562 C 16.277344 16.625 15.796875 16.972656 15.25 16.972656 L 9.820312 16.972656 C 9.277344 16.972656 8.792969 16.625 8.617188 16.101562 L 6.089844 8.488281 L 1.273438 8.488281 L 1.273438 18.105469 C 1.273438 20.605469 3.289062 22.632812 5.777344 22.632812 L 19.292969 22.632812 C 21.78125 22.632812 23.796875 20.605469 23.796875 18.105469 Z M 23.796875 8.488281 "/>
<path style=" stroke:none;fill-rule:nonzero;fill:rgb(32.156864%,36.862746%,44.705883%);fill-opacity:1;" d="M 34.089844 20.746094 C 33.734375 20.746094 33.351562 20.734375 32.945312 20.707031 C 32.550781 20.691406 32.140625 20.664062 31.71875 20.625 C 31.3125 20.570312 30.925781 20.523438 30.554688 20.484375 C 30.1875 20.429688 29.859375 20.371094 29.570312 20.304688 L 29.570312 18.351562 C 29.9375 18.378906 30.363281 18.40625 30.851562 18.433594 C 31.351562 18.460938 31.871094 18.480469 32.410156 18.492188 C 32.953125 18.507812 33.472656 18.511719 33.972656 18.511719 C 34.496094 18.511719 34.964844 18.464844 35.375 18.371094 C 35.78125 18.265625 36.097656 18.082031 36.320312 17.828125 C 36.542969 17.574219 36.65625 17.210938 36.65625 16.742188 L 36.65625 16.039062 C 36.65625 15.515625 36.511719 15.113281 36.222656 14.832031 C 35.933594 14.550781 35.503906 14.410156 34.9375 14.410156 L 33.578125 14.410156 C 32.246094 14.410156 31.21875 14.113281 30.496094 13.523438 C 29.785156 12.933594 29.429688 11.921875 29.429688 10.484375 L 29.429688 9.722656 C 29.429688 8.285156 29.820312 7.253906 30.59375 6.625 C 31.386719 5.980469 32.511719 5.65625 33.972656 5.65625 C 34.472656 5.65625 34.984375 5.683594 35.511719 5.738281 C 36.050781 5.777344 36.5625 5.832031 37.050781 5.898438 C 37.539062 5.964844 37.953125 6.039062 38.296875 6.121094 L 38.296875 8.070312 C 37.714844 8.03125 37.050781 7.992188 36.300781 7.953125 C 35.5625 7.910156 34.878906 7.890625 34.246094 7.890625 C 33.746094 7.890625 33.304688 7.945312 32.925781 8.050781 C 32.542969 8.160156 32.253906 8.355469 32.054688 8.636719 C 31.859375 8.902344 31.761719 9.304688 31.761719 9.84375 L 31.761719 10.324219 C 31.761719 10.957031 31.925781 11.398438 32.253906 11.652344 C 32.597656 11.90625 33.082031 12.035156 33.714844 12.035156 L 35.234375 12.035156 C 36.089844 12.035156 36.792969 12.195312 37.347656 12.519531 C 37.898438 12.839844 38.308594 13.28125 38.570312 13.84375 C 38.847656 14.394531 38.984375 15.027344 38.984375 15.738281 L 38.984375 16.683594 C 38.984375 17.78125 38.777344 18.625 38.355469 19.21875 C 37.933594 19.808594 37.355469 20.210938 36.617188 20.425781 C 35.878906 20.636719 35.039062 20.746094 34.089844 20.746094 Z M 34.089844 20.746094 "/>
<path style=" stroke:none;fill-rule:nonzero;fill:rgb(32.156864%,36.862746%,44.705883%);fill-opacity:1;" d="M 44.710938 20.726562 C 44.394531 20.726562 44.039062 20.691406 43.644531 20.625 C 43.261719 20.570312 42.894531 20.445312 42.539062 20.242188 C 42.183594 20.027344 41.894531 19.714844 41.671875 19.296875 C 41.445312 18.882812 41.335938 18.3125 41.335938 17.585938 L 41.335938 9.015625 C 41.335938 8.386719 41.425781 7.863281 41.609375 7.449219 C 41.796875 7.019531 42.039062 6.683594 42.339844 6.441406 C 42.65625 6.199219 43 6.035156 43.367188 5.941406 C 43.75 5.832031 44.125 5.777344 44.492188 5.777344 C 45.414062 5.777344 46.246094 5.792969 46.980469 5.820312 C 47.71875 5.847656 48.390625 5.871094 48.996094 5.898438 C 49.613281 5.925781 50.1875 5.960938 50.714844 6 L 50.714844 8.070312 L 45.203125 8.070312 C 44.757812 8.070312 44.402344 8.1875 44.136719 8.414062 C 43.886719 8.640625 43.761719 8.996094 43.761719 9.480469 L 43.761719 12.117188 L 49.824219 12.257812 L 49.824219 14.207031 L 43.761719 14.347656 L 43.761719 16.902344 C 43.761719 17.304688 43.828125 17.613281 43.960938 17.828125 C 44.105469 18.042969 44.28125 18.191406 44.492188 18.269531 C 44.71875 18.351562 44.949219 18.390625 45.183594 18.390625 L 50.714844 18.390625 L 50.714844 20.464844 C 50.132812 20.519531 49.503906 20.566406 48.816406 20.605469 C 48.132812 20.632812 47.433594 20.652344 46.726562 20.664062 C 46.027344 20.691406 45.355469 20.710938 44.710938 20.726562 Z M 44.710938 20.726562 "/>
<path style=" stroke:none;fill-rule:nonzero;fill:rgb(32.156864%,36.862746%,44.705883%);fill-opacity:1;" d="M 53.214844 20.625 L 53.214844 5.777344 L 55.171875 5.777344 L 61.804688 16.378906 L 61.804688 5.777344 L 64.25 5.777344 L 64.25 20.625 L 62.296875 20.625 L 55.664062 10.023438 L 55.664062 20.625 Z M 53.214844 20.625 "/>
<path style=" stroke:none;fill-rule:nonzero;fill:rgb(32.156864%,36.862746%,44.705883%);fill-opacity:1;" d="M 71.128906 20.746094 C 70.773438 20.746094 70.390625 20.734375 69.984375 20.707031 C 69.589844 20.691406 69.179688 20.664062 68.757812 20.625 C 68.351562 20.570312 67.960938 20.523438 67.59375 20.484375 C 67.226562 20.429688 66.894531 20.371094 66.605469 20.304688 L 66.605469 18.351562 C 66.976562 18.378906 67.402344 18.40625 67.890625 18.433594 C 68.390625 18.460938 68.910156 18.480469 69.449219 18.492188 C 69.988281 18.507812 70.507812 18.511719 71.007812 18.511719 C 71.535156 18.511719 72.003906 18.464844 72.410156 18.371094 C 72.820312 18.265625 73.136719 18.082031 73.359375 17.828125 C 73.582031 17.574219 73.695312 17.210938 73.695312 16.742188 L 73.695312 16.039062 C 73.695312 15.515625 73.550781 15.113281 73.261719 14.832031 C 72.96875 14.550781 72.542969 14.410156 71.976562 14.410156 L 70.613281 14.410156 C 69.285156 14.410156 68.257812 14.113281 67.535156 13.523438 C 66.824219 12.933594 66.46875 11.921875 66.46875 10.484375 L 66.46875 9.722656 C 66.46875 8.285156 66.855469 7.253906 67.632812 6.625 C 68.421875 5.980469 69.546875 5.65625 71.007812 5.65625 C 71.507812 5.65625 72.023438 5.683594 72.550781 5.738281 C 73.089844 5.777344 73.601562 5.832031 74.089844 5.898438 C 74.578125 5.964844 74.992188 6.039062 75.332031 6.121094 L 75.332031 8.070312 C 74.753906 8.03125 74.089844 7.992188 73.339844 7.953125 C 72.601562 7.910156 71.917969 7.890625 71.285156 7.890625 C 70.785156 7.890625 70.34375 7.945312 69.964844 8.050781 C 69.582031 8.160156 69.292969 8.355469 69.09375 8.636719 C 68.898438 8.902344 68.796875 9.304688 68.796875 9.84375 L 68.796875 10.324219 C 68.796875 10.957031 68.960938 11.398438 69.292969 11.652344 C 69.632812 11.90625 70.121094 12.035156 70.753906 12.035156 L 72.273438 12.035156 C 73.128906 12.035156 73.832031 12.195312 74.386719 12.519531 C 74.9375 12.839844 75.347656 13.28125 75.609375 13.84375 C 75.886719 14.394531 76.023438 15.027344 76.023438 15.738281 L 76.023438 16.683594 C 76.023438 17.78125 75.8125 18.625 75.390625 19.21875 C 74.972656 19.808594 74.390625 20.210938 73.65625 20.425781 C 72.917969 20.636719 72.074219 20.746094 71.128906 20.746094 Z M 71.128906 20.746094 "/>
<path style=" stroke:none;fill-rule:nonzero;fill:rgb(32.156864%,36.862746%,44.705883%);fill-opacity:1;" d="M 78.371094 20.625 L 78.371094 5.777344 L 80.800781 5.777344 L 80.800781 20.625 Z M 78.371094 20.625 "/>
<path style=" stroke:none;fill-rule:nonzero;fill:rgb(32.156864%,36.862746%,44.705883%);fill-opacity:1;" d="M 83.519531 20.625 L 83.519531 5.777344 L 89.089844 5.777344 C 90.457031 5.777344 91.472656 6.105469 92.128906 6.765625 C 92.789062 7.421875 93.117188 8.378906 93.117188 9.640625 C 93.117188 10.230469 93.023438 10.753906 92.839844 11.210938 C 92.667969 11.652344 92.433594 12.023438 92.128906 12.316406 C 91.828125 12.597656 91.472656 12.792969 91.0625 12.898438 C 91.367188 12.980469 91.660156 13.109375 91.953125 13.28125 C 92.253906 13.445312 92.53125 13.671875 92.78125 13.964844 C 93.03125 14.261719 93.226562 14.625 93.371094 15.050781 C 93.519531 15.46875 93.589844 15.957031 93.589844 16.519531 C 93.589844 17.539062 93.417969 18.351562 93.078125 18.957031 C 92.746094 19.546875 92.261719 19.976562 91.617188 20.242188 C 90.984375 20.496094 90.21875 20.625 89.324219 20.625 Z M 85.949219 18.390625 L 89.246094 18.390625 C 89.65625 18.390625 90.011719 18.316406 90.3125 18.171875 C 90.617188 18.023438 90.847656 17.789062 91.003906 17.464844 C 91.175781 17.132812 91.261719 16.675781 91.261719 16.097656 C 91.261719 15.644531 91.175781 15.261719 91.003906 14.953125 C 90.832031 14.644531 90.59375 14.410156 90.292969 14.246094 C 89.992188 14.074219 89.640625 13.988281 89.246094 13.988281 L 85.949219 13.988281 Z M 85.949219 12.054688 L 89.128906 12.054688 C 89.613281 12.054688 90.011719 11.875 90.3125 11.511719 C 90.617188 11.136719 90.773438 10.648438 90.785156 10.042969 C 90.800781 9.277344 90.636719 8.75 90.292969 8.453125 C 89.964844 8.160156 89.554688 8.011719 89.070312 8.011719 L 85.949219 8.011719 Z M 85.949219 12.054688 "/>
<path style=" stroke:none;fill-rule:nonzero;fill:rgb(32.156864%,36.862746%,44.705883%);fill-opacity:1;" d="M 101.113281 20.726562 C 100.3125 20.726562 99.570312 20.660156 98.882812 20.523438 C 98.199219 20.378906 97.605469 20.128906 97.105469 19.78125 C 96.605469 19.417969 96.21875 18.929688 95.941406 18.3125 C 95.679688 17.679688 95.546875 16.875 95.546875 15.898438 L 95.546875 5.777344 L 97.976562 5.777344 L 97.976562 15.898438 C 97.976562 16.542969 98.101562 17.058594 98.351562 17.445312 C 98.601562 17.820312 98.957031 18.089844 99.417969 18.25 C 99.890625 18.414062 100.457031 18.492188 101.113281 18.492188 C 101.773438 18.492188 102.332031 18.414062 102.792969 18.25 C 103.265625 18.089844 103.628906 17.820312 103.878906 17.445312 C 104.128906 17.058594 104.253906 16.542969 104.253906 15.898438 L 104.253906 5.777344 L 106.683594 5.777344 L 106.683594 15.898438 C 106.683594 16.875 106.542969 17.679688 106.269531 18.3125 C 106.003906 18.929688 105.625 19.417969 105.125 19.78125 C 104.621094 20.128906 104.03125 20.378906 103.347656 20.523438 C 102.675781 20.660156 101.929688 20.726562 101.113281 20.726562 Z M 101.113281 20.726562 "/>
<path style=" stroke:none;fill-rule:nonzero;fill:rgb(32.156864%,36.862746%,44.705883%);fill-opacity:1;" d="M 112.460938 20.625 C 111.777344 20.625 111.183594 20.519531 110.683594 20.304688 C 110.195312 20.089844 109.828125 19.738281 109.578125 19.257812 C 109.328125 18.761719 109.203125 18.109375 109.203125 17.304688 L 109.203125 5.777344 L 111.632812 5.777344 L 111.632812 16.902344 C 111.632812 17.277344 111.695312 17.582031 111.828125 17.808594 C 111.960938 18.023438 112.132812 18.171875 112.34375 18.25 C 112.566406 18.332031 112.808594 18.371094 113.074219 18.371094 L 117.910156 18.371094 L 117.910156 20.625 Z M 112.460938 20.625 "/>
<path style=" stroke:none;fill-rule:nonzero;fill:rgb(32.156864%,36.862746%,44.705883%);fill-opacity:1;" d="M 123.007812 20.625 C 122.324219 20.625 121.730469 20.519531 121.230469 20.304688 C 120.742188 20.089844 120.375 19.738281 120.125 19.257812 C 119.875 18.761719 119.75 18.109375 119.75 17.304688 L 119.75 5.777344 L 122.179688 5.777344 L 122.179688 16.902344 C 122.179688 17.277344 122.242188 17.582031 122.375 17.808594 C 122.507812 18.023438 122.679688 18.171875 122.886719 18.25 C 123.113281 18.332031 123.355469 18.371094 123.617188 18.371094 L 128.457031 18.371094 L 128.457031 20.625 Z M 123.007812 20.625 "/>
</g>
</svg>
